<svg id="Layer_1" data-name="Layer 1" xmlns="http://www.w3.org/2000/svg" viewBox="0 0 32 32"><defs><style>.cls-1{fill:#2fb67c;}.cls-2{fill:#f24c3d;}.cls-3{fill:#ecb22d;}.cls-4{fill:#2a6bbf;}</style></defs><path class="cls-1" d="M26.6,6a.4.4,0,0,1-.4.2c-2.3-.6-9.7,1-15.7,3.4H9.3a1.8,1.8,0,0,1-.8-.9,1.6,1.6,0,0,1,.9-2c5.3-2.2,13.5-4.1,15-3h0a10.4,10.4,0,0,1,2.2,1.9A.3.3,0,0,1,26.6,6Z"/><path class="cls-1" d="M7.6,10.3a1.8,1.8,0,0,1-.8.9l-2.1,1-.7.2H3.5a1.4,1.4,0,0,1-.9-.8,1.7,1.7,0,0,1-.1-1.2,1.8,1.8,0,0,1,.8-.9l2.1-1a1.7,1.7,0,0,1,1.2,0,1.4,1.4,0,0,1,.9.8A1.4,1.4,0,0,1,7.6,10.3Z"/><path class="cls-2" d="M29.6,11.5h-.5c-2.1-1.2-10.9,1.2-17.5,4l-.8.2-.8-.2a2,2,0,0,1-1.1-1.1A2,2,0,0,1,10,11.7C16.7,8.9,26.4,6.6,28.3,8l.2.2a8.1,8.1,0,0,1,1.2,2.9A.6.6,0,0,1,29.6,11.5Z"/><path class="cls-2" d="M7.8,16.6a2.3,2.3,0,0,1-1,1.2L4.6,18.9l-.9.2A2,2,0,0,1,1.9,18a1.8,1.8,0,0,1-.1-1.6,1.6,1.6,0,0,1,1-1.1L5,14.1a2.1,2.1,0,0,1,2.7,1A1.6,1.6,0,0,1,7.8,16.6Z"/><path class="cls-3" d="M30.1,17.5c0,.1-.2.2-.3.2a.2.2,0,0,1-.3-.1c-1.1-1.4-10.7.8-17.5,4.1l-.7.2h-.6a1.8,1.8,0,0,1-.9-1,.8.8,0,0,1-.2-.4,1.7,1.7,0,0,1,.9-2.3c6-2.8,15.8-5.6,19-4.6.6.2.7.5.7.7A7.5,7.5,0,0,1,30.1,17.5Z"/><path class="cls-3" d="M8.8,22.9a2.2,2.2,0,0,1-1,1.1l-1.6.7a1.3,1.3,0,0,1-.8.2,1.9,1.9,0,0,1-.9-3.7l1.6-.7a1.9,1.9,0,0,1,2.6.9A2.6,2.6,0,0,1,8.8,22.9Z"/><path class="cls-1" d="M29.6,20.3a9.5,9.5,0,0,1-1.9,3h-.3a.5.5,0,0,1-.2-.4h-.1c-.5-.3-2.4-.3-5.7.6a43.7,43.7,0,0,0-5.8,2.1l-.6.2a1.6,1.6,0,0,1-1.2-.6l-.2-.3a1.5,1.5,0,0,1-.2-1.3,1.6,1.6,0,0,1,.8-1,44,44,0,0,1,7.5-2.5,22.7,22.7,0,0,1,5.7-.9,3.4,3.4,0,0,1,1.9.4A.9.9,0,0,1,29.6,20.3Z"/><path class="cls-1" d="M12.8,26.5a1.8,1.8,0,0,1-.9,1l-1.2.7-.8.2a1.6,1.6,0,0,1-1.5-.9,1.8,1.8,0,0,1,.7-2.3l1.2-.7a2,2,0,0,1,1.3-.1,1.6,1.6,0,0,1,1,.8A1.5,1.5,0,0,1,12.8,26.5Z"/><path class="cls-4" d="M26.2,25.1c.1,1.5-3.5,3-3.5,3s-.4.2-.6,0,.1-.4.3-.6l.3-.2c.1-.5-2.6.5-3.7,1.1l-.8.2a1.9,1.9,0,0,1-1.2-.4h-.1a.8.8,0,0,1-.3-.8.7.7,0,0,1,.4-.6,23,23,0,0,1,8-2.2c.4,0,.7,0,.9.2A.4.4,0,0,1,26.2,25.1Z"/><path class="cls-4" d="M16,29.3a1.6,1.6,0,0,1-.6.8l-1.1.6h-.6a1.1,1.1,0,0,1-1.1-.6,1.3,1.3,0,0,1-.1-.9,1.1,1.1,0,0,1,.6-.7l1.1-.7a1.2,1.2,0,0,1,1.6.5A1.5,1.5,0,0,1,16,29.3Z"/><path class="cls-4" d="M21.5,2.4h0c0,.1-.1.1-.3.1h-.5c-2.5,0-6.9,1.1-10.8,2.7H9.2a.5.5,0,0,1-.3-.5V4.6a.6.6,0,0,1,.4-.8c3.3-1.5,7.7-2.6,9.4-2.3a9,9,0,0,1,2.7.7Z"/><path class="cls-4" d="M7.9,6l-.5.5-2.1,1H4.9A1,1,0,0,1,4.1,7a.8.8,0,0,1,0-.7.8.8,0,0,1,.5-.5l2.1-.9a.9.9,0,0,1,1.2.4A.9.9,0,0,1,7.9,6Z"/><path class="cls-4" d="M14.6,1c-.1.2-.2.2-.4.3A23.3,23.3,0,0,0,8.7,2.9L8,3.2H7.9c-.2,0-.3-.1-.4-.3a.6.6,0,0,1,.1-.6A14.5,14.5,0,0,1,14.3.7h.3Z"/><path class="cls-4" d="M6.7,3.7,6.4,4l-1.1.4H5.1a.9.9,0,0,1-.5-.3.7.7,0,0,1,.3-.8L6,3c.2-.1.3-.1.4,0a.3.3,0,0,1,.3.3A.3.3,0,0,1,6.7,3.7Z"/></svg>