<svg width="150" height="152" viewBox="0 0 150 152" fill="none" xmlns="http://www.w3.org/2000/svg">
<path d="M149.519 124.393C149.519 131.02 144.146 136.393 137.519 136.393H12.4807C5.8533 136.393 0.480713 131.02 0.480713 124.393V74.0723C2.35817 75.2899 4.59583 76 7.00024 76H141C144.331 75.9999 147.345 74.6426 149.519 72.4512V124.393Z" fill="url(#paint0_linear_31_1707)"/>
<path d="M137.5 17.6074C144.127 17.6074 149.5 22.98 149.5 29.6074V54.6074C149.5 61.2348 144.127 66.6074 137.5 66.6074H12.5C5.87258 66.6074 0.5 61.2348 0.5 54.6074V29.6074C0.5 22.98 5.87258 17.6074 12.5 17.6074H137.5ZM69 46C64.5818 46 61.0001 49.5818 61 54C61 58.4183 64.5817 62 69 62H81C85.4183 62 89 58.4183 89 54C88.9999 49.5818 85.4182 46 81 46H69ZM79 50C81.2091 50 82.9999 51.791 83 54C83 56.2091 81.2091 58 79 58H71C68.7909 58 67 56.2091 67 54C67.0001 51.791 68.7909 50 71 50H79Z" fill="url(#paint1_linear_31_1707)"/>
<path d="M91 0C92.6568 6.4426e-08 94 1.34315 94 3V14H90V8H58V14H54V3C54 1.34315 55.3432 0 57 0H91Z" fill="#6FC6E3"/>
<defs>
<linearGradient id="paint0_linear_31_1707" x1="74.9998" y1="72.4512" x2="74.9998" y2="136.393" gradientUnits="userSpaceOnUse">
<stop stop-color="#69C7E5"/>
<stop offset="0.58" stop-color="#B1C0D8"/>
<stop offset="1" stop-color="#8875D8"/>
</linearGradient>
<linearGradient id="paint1_linear_31_1707" x1="75" y1="17.6074" x2="75" y2="66.6074" gradientUnits="userSpaceOnUse">
<stop stop-color="#69C7E5"/>
<stop offset="0.58" stop-color="#B1C0D8"/>
<stop offset="1" stop-color="#8875D8"/>
</linearGradient>
</defs>
</svg>
