<svg width="182" height="146" viewBox="0 0 182 146" fill="none" xmlns="http://www.w3.org/2000/svg">
<g filter="url(#filter0_d_31_1755)">
<path d="M124.693 68.9513C124.693 72.0666 123.77 75.1119 122.039 77.7022C120.309 80.2924 117.849 82.3113 114.971 83.5035C112.093 84.6957 108.926 85.0076 105.87 84.3998C102.815 83.792 100.008 82.2917 97.8057 80.0888L97.7129 79.9904L80.8519 60.9498C79.2734 59.3897 77.2686 58.3313 75.09 57.9079C72.9113 57.4845 70.6561 57.715 68.6082 58.5704C66.5602 59.4257 64.811 60.8677 63.5807 62.7149C62.3503 64.5621 61.6939 66.7319 61.6939 68.9513C61.6939 71.1707 62.3503 73.3406 63.5807 75.1878C64.811 77.0349 66.5602 78.4769 68.6082 79.3323C70.6561 80.1876 72.9113 80.4181 75.09 79.9947C77.2686 79.5714 79.2734 78.513 80.8519 76.9529L83.2482 74.2473C83.4441 74.0257 83.6818 73.8448 83.9476 73.7151C84.2134 73.5853 84.5022 73.5092 84.7975 73.491C85.0927 73.4729 85.3886 73.5131 85.6684 73.6093C85.9481 73.7055 86.2061 73.8559 86.4277 74.0518C86.6493 74.2477 86.8302 74.4854 86.9599 74.7512C87.0897 75.0171 87.1658 75.3058 87.184 75.6011C87.2021 75.8963 87.1619 76.1923 87.0657 76.472C86.9695 76.7517 86.8191 77.0097 86.6232 77.2313L84.1791 79.9904L84.0863 80.0888C81.8836 82.2914 79.0772 83.7912 76.022 84.3988C72.9669 85.0064 69.8002 84.6944 66.9223 83.5023C64.0445 82.3102 61.5848 80.2914 59.8542 77.7014C58.1236 75.1114 57.2 72.0663 57.2 68.9513C57.2 65.8364 58.1236 62.7913 59.8542 60.2013C61.5848 57.6112 64.0445 55.5925 66.9223 54.4004C69.8002 53.2083 72.9669 52.8963 76.022 53.5039C79.0772 54.1114 81.8836 55.6113 84.0863 57.8138L84.1791 57.9123L101.04 76.9529C102.619 78.513 104.623 79.5714 106.802 79.9947C108.981 80.4181 111.236 80.1876 113.284 79.3323C115.332 78.4769 117.081 77.0349 118.311 75.1878C119.542 73.3406 120.198 71.1707 120.198 68.9513C120.198 66.7319 119.542 64.5621 118.311 62.7149C117.081 60.8677 115.332 59.4257 113.284 58.5704C111.236 57.715 108.981 57.4845 106.802 57.9079C104.623 58.3313 102.619 59.3897 101.04 60.9498L98.6438 63.6554C98.2481 64.103 97.6908 64.375 97.0945 64.4116C96.4983 64.4483 95.9118 64.2466 95.4643 63.8509C95.0167 63.4552 94.7447 62.8979 94.708 62.3016C94.6714 61.7053 94.8731 61.1189 95.2688 60.6713L97.7129 57.9123L97.8057 57.8138C100.008 55.6109 102.815 54.1107 105.87 53.5029C108.926 52.8951 112.093 53.207 114.971 54.3992C117.849 55.5913 120.309 57.6102 122.039 60.2005C123.77 62.7908 124.693 65.8361 124.693 68.9513Z" fill="#CCE3FF"/>
</g>
<defs>
<filter id="filter0_d_31_1755" x="-2.25689" y="-20.2488" width="186.4" height="186.4" filterUnits="userSpaceOnUse" color-interpolation-filters="sRGB">
<feFlood flood-opacity="0" result="BackgroundImageFix"/>
<feColorMatrix in="SourceAlpha" type="matrix" values="0 0 0 0 0 0 0 0 0 0 0 0 0 0 0 0 0 0 127 0" result="hardAlpha"/>
<feOffset dy="4"/>
<feGaussianBlur stdDeviation="28.6"/>
<feComposite in2="hardAlpha" operator="out"/>
<feColorMatrix type="matrix" values="0 0 0 0 1 0 0 0 0 1 0 0 0 0 1 0 0 0 0.6 0"/>
<feBlend mode="normal" in2="BackgroundImageFix" result="effect1_dropShadow_31_1755"/>
<feBlend mode="normal" in="SourceGraphic" in2="effect1_dropShadow_31_1755" result="shape"/>
</filter>
</defs>
</svg>
