<svg width="171" height="164" viewBox="0 0 171 164" fill="none" xmlns="http://www.w3.org/2000/svg">
<g filter="url(#filter0_d_31_1763)">
<path d="M108.95 62.2002H63.95C63.3532 62.2002 62.7809 61.9631 62.359 61.5412C61.937 61.1192 61.7 60.5469 61.7 59.9502C61.7 59.3535 61.937 58.7812 62.359 58.3592C62.7809 57.9372 63.3532 57.7002 63.95 57.7002H102.2C102.797 57.7002 103.369 57.4631 103.791 57.0412C104.213 56.6192 104.45 56.0469 104.45 55.4502C104.45 54.8535 104.213 54.2812 103.791 53.8592C103.369 53.4372 102.797 53.2002 102.2 53.2002H63.95C62.1597 53.2002 60.4429 53.9114 59.177 55.1772C57.9111 56.4431 57.2 58.16 57.2 59.9502V95.9502C57.2 97.7404 57.9111 99.4573 59.177 100.723C60.4429 101.989 62.1597 102.7 63.95 102.7H108.95C110.143 102.7 111.288 102.226 112.132 101.382C112.976 100.538 113.45 99.3937 113.45 98.2002V66.7002C113.45 65.5067 112.976 64.3621 112.132 63.5182C111.288 62.6743 110.143 62.2002 108.95 62.2002ZM98.825 84.7002C98.1574 84.7002 97.5049 84.5023 96.9499 84.1314C96.3949 83.7606 95.9623 83.2334 95.7069 82.6167C95.4514 82 95.3846 81.3215 95.5148 80.6668C95.645 80.0121 95.9665 79.4107 96.4385 78.9387C96.9105 78.4667 97.5118 78.1453 98.1665 78.015C98.8212 77.8848 99.4998 77.9517 100.117 78.2071C100.733 78.4625 101.26 78.8951 101.631 79.4501C102.002 80.0052 102.2 80.6577 102.2 81.3252C102.2 82.2203 101.844 83.0787 101.211 83.7117C100.578 84.3446 99.7201 84.7002 98.825 84.7002Z" fill="#CCE3FF"/>
</g>
<defs>
<filter id="filter0_d_31_1763" x="-9.00005" y="-11.2498" width="186.4" height="186.4" filterUnits="userSpaceOnUse" color-interpolation-filters="sRGB">
<feFlood flood-opacity="0" result="BackgroundImageFix"/>
<feColorMatrix in="SourceAlpha" type="matrix" values="0 0 0 0 0 0 0 0 0 0 0 0 0 0 0 0 0 0 127 0" result="hardAlpha"/>
<feOffset dy="4"/>
<feGaussianBlur stdDeviation="28.6"/>
<feComposite in2="hardAlpha" operator="out"/>
<feColorMatrix type="matrix" values="0 0 0 0 1 0 0 0 0 1 0 0 0 0 1 0 0 0 0.6 0"/>
<feBlend mode="normal" in2="BackgroundImageFix" result="effect1_dropShadow_31_1763"/>
<feBlend mode="normal" in="SourceGraphic" in2="effect1_dropShadow_31_1763" result="shape"/>
</filter>
</defs>
</svg>
