<svg width="173" height="173" viewBox="0 0 173 173" fill="none" xmlns="http://www.w3.org/2000/svg">
<g filter="url(#filter0_d_31_1757)">
<path d="M86.45 53.2002C80.6649 53.2002 75.0097 54.9157 70.1995 58.1297C65.3894 61.3437 61.6404 65.912 59.4265 71.2567C57.2126 76.6014 56.6334 82.4826 57.762 88.1566C58.8906 93.8305 61.6764 99.0424 65.7671 103.133C69.8578 107.224 75.0696 110.01 80.7436 111.138C86.4175 112.267 92.2987 111.688 97.6435 109.474C102.988 107.26 107.556 103.511 110.77 98.7006C113.984 93.8905 115.7 88.2353 115.7 82.4502C115.692 74.6951 112.607 67.26 107.124 61.7764C101.64 56.2927 94.205 53.2084 86.45 53.2002ZM86.45 57.7002C90.4122 57.7018 94.3162 58.6547 97.8337 60.4788C101.351 62.3028 104.379 64.9447 106.663 68.1824L86.45 79.8514V57.7002ZM86.45 107.2C82.4877 107.199 78.5837 106.246 75.0662 104.422C71.5488 102.598 68.5207 99.9556 66.2365 96.718L108.919 72.0777C110.66 75.8486 111.423 79.9968 111.14 84.1403C110.856 88.2838 109.534 92.2893 107.296 95.7878C105.058 99.2864 101.975 102.165 98.3325 104.16C94.6895 106.154 90.6032 107.2 86.45 107.2Z" fill="#CCE3FF"/>
</g>
<defs>
<filter id="filter0_d_31_1757" x="-6.75005" y="-6.74981" width="186.4" height="186.4" filterUnits="userSpaceOnUse" color-interpolation-filters="sRGB">
<feFlood flood-opacity="0" result="BackgroundImageFix"/>
<feColorMatrix in="SourceAlpha" type="matrix" values="0 0 0 0 0 0 0 0 0 0 0 0 0 0 0 0 0 0 127 0" result="hardAlpha"/>
<feOffset dy="4"/>
<feGaussianBlur stdDeviation="28.6"/>
<feComposite in2="hardAlpha" operator="out"/>
<feColorMatrix type="matrix" values="0 0 0 0 1 0 0 0 0 1 0 0 0 0 1 0 0 0 0.6 0"/>
<feBlend mode="normal" in2="BackgroundImageFix" result="effect1_dropShadow_31_1757"/>
<feBlend mode="normal" in="SourceGraphic" in2="effect1_dropShadow_31_1757" result="shape"/>
</filter>
</defs>
</svg>
