<svg width="182" height="169" viewBox="0 0 182 169" fill="none" xmlns="http://www.w3.org/2000/svg">
<g filter="url(#filter0_d_31_1745)">
<path d="M93.2253 62.5961C93.3513 60.8499 93.928 59.1664 94.8989 57.7096C95.8699 56.2529 97.202 55.0728 98.7652 54.2846C100.328 53.4963 102.069 53.1269 103.818 53.2122C105.566 53.2976 107.263 53.8349 108.742 54.7717C108.911 54.8823 109.047 55.0365 109.136 55.2179C109.225 55.3993 109.263 55.6014 109.247 55.8028C109.231 56.0042 109.161 56.1976 109.044 56.3626C108.928 56.5276 108.769 56.6581 108.584 56.7404C106.013 57.8971 103.831 59.7715 102.299 62.1383C100.768 64.5051 99.9519 67.2638 99.9499 70.0829C99.9499 70.412 99.9499 70.7411 99.9837 71.0645C99.9992 71.2689 99.9585 71.4737 99.8661 71.6567C99.7737 71.8397 99.633 71.994 99.4593 72.1029C99.2856 72.2117 99.0854 72.2711 98.8804 72.2744C98.6754 72.2778 98.4734 72.2251 98.2962 72.122C96.6387 71.1739 95.2831 69.7765 94.3858 68.0909C93.4886 66.4054 93.0862 64.5005 93.2253 62.5961ZM124.7 91.6295C124.704 92.9152 124.348 94.1763 123.672 95.2699C122.996 96.3635 122.027 97.2459 120.875 97.817L120.751 97.8732L109.83 102.525C109.722 102.573 109.61 102.61 109.496 102.638L91.4956 107.138C91.3173 107.183 91.134 107.207 90.9499 107.208H61.7C60.5065 107.208 59.3619 106.734 58.518 105.89C57.6741 105.046 57.2 103.901 57.2 102.708V91.4579C57.2 90.2645 57.6741 89.1199 58.518 88.276C59.3619 87.432 60.5065 86.9579 61.7 86.9579H69.769L76.1309 80.5933C76.9651 79.7553 77.9571 79.091 79.0495 78.6387C80.1419 78.1863 81.3132 77.955 82.4956 77.9579H96.5749C97.7634 77.9578 98.9365 78.2267 100.006 78.7444C101.076 79.2621 102.015 80.0153 102.752 80.9474C103.489 81.8796 104.006 82.9665 104.264 84.1267C104.521 85.287 104.513 86.4905 104.239 87.647L116.007 84.9414C117.031 84.6701 118.104 84.6377 119.143 84.8466C120.182 85.0555 121.159 85.5002 121.999 86.1464C122.839 86.7926 123.519 87.623 123.987 88.5736C124.456 89.5243 124.7 90.5698 124.7 91.6295ZM120.2 91.6295C120.2 91.2575 120.114 90.8905 119.948 90.5572C119.783 90.2238 119.544 89.9329 119.248 89.7071C118.952 89.4814 118.609 89.3268 118.243 89.2553C117.878 89.1838 117.502 89.1975 117.143 89.2951L117.056 89.3176L98.2118 93.6517C98.0465 93.6886 97.8777 93.7075 97.7084 93.7079H88.6999C88.1032 93.7079 87.5309 93.4709 87.109 93.0489C86.687 92.627 86.4499 92.0547 86.4499 91.4579C86.4499 90.8612 86.687 90.2889 87.109 89.8669C87.5309 89.445 88.1032 89.2079 88.6999 89.2079H96.5749C97.4701 89.2079 98.3285 88.8524 98.9614 88.2194C99.5944 87.5865 99.9499 86.728 99.9499 85.8329C99.9499 84.9378 99.5944 84.0794 98.9614 83.4465C98.3285 82.8135 97.4701 82.4579 96.5749 82.4579H82.4956C81.9044 82.456 81.3188 82.5717 80.7727 82.7981C80.2266 83.0246 79.731 83.3573 79.3146 83.777L72.9499 90.1389V102.708H90.6687L108.227 98.3176L118.915 93.767C119.304 93.5621 119.629 93.2545 119.856 92.8777C120.082 92.5009 120.201 92.0692 120.2 91.6295ZM104.45 70.0829C104.45 72.0855 105.044 74.043 106.156 75.7081C107.269 77.3731 108.85 78.6709 110.7 79.4372C112.55 80.2036 114.586 80.4041 116.55 80.0134C118.514 79.6227 120.318 78.6584 121.734 77.2424C123.15 75.8264 124.115 74.0223 124.505 72.0582C124.896 70.0942 124.696 68.0584 123.929 66.2083C123.163 64.3582 121.865 62.7769 120.2 61.6643C118.535 60.5518 116.577 59.9579 114.575 59.9579C111.89 59.9579 109.314 61.0247 107.415 62.9235C105.517 64.8223 104.45 67.3976 104.45 70.0829Z" fill="#CCE3FF"/>
</g>
<defs>
<filter id="filter0_d_31_1745" x="-4.95911e-05" y="-6.74199" width="186.4" height="186.4" filterUnits="userSpaceOnUse" color-interpolation-filters="sRGB">
<feFlood flood-opacity="0" result="BackgroundImageFix"/>
<feColorMatrix in="SourceAlpha" type="matrix" values="0 0 0 0 0 0 0 0 0 0 0 0 0 0 0 0 0 0 127 0" result="hardAlpha"/>
<feOffset dy="4"/>
<feGaussianBlur stdDeviation="28.6"/>
<feComposite in2="hardAlpha" operator="out"/>
<feColorMatrix type="matrix" values="0 0 0 0 1 0 0 0 0 1 0 0 0 0 1 0 0 0 0.6 0"/>
<feBlend mode="normal" in2="BackgroundImageFix" result="effect1_dropShadow_31_1745"/>
<feBlend mode="normal" in="SourceGraphic" in2="effect1_dropShadow_31_1745" result="shape"/>
</filter>
</defs>
</svg>
