<svg width="328" height="331" viewBox="0 0 328 331" fill="none" xmlns="http://www.w3.org/2000/svg">
<path d="M324.949 144.274C326.236 147.373 326.949 150.771 326.949 154.335V270.633C326.949 285.125 315.2 296.872 300.708 296.872H27.2915C12.7997 296.872 1.05149 285.125 1.05127 270.633V154.335C1.05129 152.665 1.20917 151.032 1.50732 149.449C5.73242 158.278 14.748 164.377 25.189 164.377H299.432C311.81 164.377 322.185 155.805 324.949 144.274Z" fill="url(#paint0_linear_31_1779)"/>
<path d="M300.667 37.1279C315.158 37.1279 326.907 48.8762 326.907 63.3682V118.034C326.907 132.526 315.158 144.274 300.667 144.274H27.3335C12.8415 144.274 1.09326 132.526 1.09326 118.034V63.3682C1.09326 48.8762 12.8415 37.1279 27.3335 37.1279H300.667ZM148.694 101.4C143.863 101.4 139.947 105.316 139.947 110.146V124.126C139.947 128.956 143.863 132.872 148.694 132.872H180.391C185.222 132.872 189.138 128.956 189.138 124.126V110.146C189.138 105.316 185.222 101.4 180.391 101.4H148.694ZM174.925 106.646C179.756 106.646 183.672 110.562 183.672 115.393V118.88C183.672 123.711 179.756 127.627 174.925 127.627H154.159C149.328 127.627 145.413 123.71 145.413 118.88V115.393C145.413 110.562 149.328 106.646 154.159 106.646H174.925Z" fill="url(#paint1_linear_31_1779)"/>
<path d="M202 0.125977C203.725 0.570016 205 2.13616 205 4V29H197V14H127V29H118V4.5C118 2.18376 119.75 0.277085 122 0.0283203V0H202V0.125977Z" fill="#6FC6E3"/>
<defs>
<linearGradient id="paint0_linear_31_1779" x1="164" y1="144.274" x2="164" y2="296.872" gradientUnits="userSpaceOnUse">
<stop stop-color="#69C7E5"/>
<stop offset="0.58" stop-color="#B1C0D8"/>
<stop offset="1" stop-color="#8875D8"/>
</linearGradient>
<linearGradient id="paint1_linear_31_1779" x1="164" y1="37.1279" x2="164" y2="144.275" gradientUnits="userSpaceOnUse">
<stop stop-color="#69C7E5"/>
<stop offset="0.58" stop-color="#B1C0D8"/>
<stop offset="1" stop-color="#8875D8"/>
</linearGradient>
</defs>
</svg>
