<svg width="150" height="150" viewBox="0 0 150 150" fill="none" xmlns="http://www.w3.org/2000/svg">
<path d="M132.39 40.3757L132.39 68.9302H121.489C114.677 68.9302 108.032 77.9213 108.713 86.644C109.258 93.6222 116.161 101.041 121.83 101.041H132.39L132.39 129.499C132.39 131.623 131.027 132.154 130.346 132.154C95.6005 132.027 24.9512 131.775 20.3184 131.775C15.6857 131.775 14.0733 127.224 13.8462 124.948C13.8462 94.8611 13.9143 33.0182 14.1868 26.3435C14.4593 19.6687 19.0694 18 21.3403 18H121.83C123.738 18 124.442 19.7698 124.555 20.6547V26.3435H25.4281C24.4061 26.5963 22.226 28.0122 21.681 31.653C21.1359 35.2937 24.4061 36.9624 26.1093 37.3417H129.665C131.845 37.3417 132.39 39.3643 132.39 40.3757Z" fill="url(#paint0_linear_31_1699)"/>
<path d="M134.45 74.5078C135.813 74.5078 136.154 76.0247 136.154 76.7832V92.7119C136.153 94.2288 134.791 94.8609 134.11 94.9873H121.847C118.668 93.976 114.013 90.0569 114.353 83.2305C114.693 76.4041 120.03 74.5078 121.847 74.5078H134.45ZM124.214 79.8174C122.145 79.8175 120.467 81.6854 120.467 83.9893C120.467 86.2932 122.145 88.161 124.214 88.1611C126.284 88.1611 127.961 86.2932 127.961 83.9893C127.961 81.6853 126.284 79.8174 124.214 79.8174Z" fill="url(#paint1_linear_31_1699)"/>
<defs>
<linearGradient id="paint0_linear_31_1699" x1="73.1181" y1="18" x2="73.1181" y2="132.154" gradientUnits="userSpaceOnUse">
<stop stop-color="#69C7E5"/>
<stop offset="0.58" stop-color="#B1C0D8"/>
<stop offset="1" stop-color="#8875D8"/>
</linearGradient>
<linearGradient id="paint1_linear_31_1699" x1="125.244" y1="74.5078" x2="125.244" y2="94.9872" gradientUnits="userSpaceOnUse">
<stop stop-color="#69C7E5"/>
<stop offset="0.58" stop-color="#B1C0D8"/>
<stop offset="1" stop-color="#8875D8"/>
</linearGradient>
</defs>
</svg>
