<svg width="150" height="150" viewBox="0 0 150 150" fill="none" xmlns="http://www.w3.org/2000/svg">
<path d="M108.939 142.903C108.939 144.517 107.124 145.467 105.798 144.547L74.7288 122.998C74.058 122.533 73.1715 122.522 72.4895 122.971L42.5227 142.686C41.1928 143.56 39.4231 142.607 39.4231 141.015V97.9971C48.4931 106.268 60.2697 111.264 73.1418 111.264C87.0201 111.264 99.6267 105.458 108.939 96V142.903Z" fill="#8875D8"/>
<path d="M73.0771 5C99.6292 5.00013 121.154 27.3343 121.154 54.8848C121.154 82.4351 99.6292 104.769 73.0771 104.77C46.525 104.77 25.0001 82.4352 25 54.8848C25 27.3343 46.525 5 73.0771 5ZM74.0381 14.5107C51.5609 14.5109 33.5002 33.1419 33.5 55.9238C33.5002 78.7058 51.5609 97.3377 74.0381 97.3379C96.5155 97.3379 114.577 78.7059 114.577 55.9238C114.577 33.1417 96.5154 14.5107 74.0381 14.5107ZM74.0381 22.5107C91.9198 22.5107 106.577 37.3805 106.577 55.9238C106.577 74.4672 91.9198 89.3379 74.0381 89.3379C56.1566 89.3377 41.5002 74.4671 41.5 55.9238C41.5002 37.3806 56.1566 22.511 74.0381 22.5107Z" fill="url(#paint0_linear_31_1727)"/>
<path d="M73.0771 5C99.6292 5.00013 121.154 27.3343 121.154 54.8848C121.154 82.4351 99.6292 104.769 73.0771 104.77C46.525 104.77 25.0001 82.4352 25 54.8848C25 27.3343 46.525 5 73.0771 5ZM74.0381 14.5107C51.5609 14.5109 33.5002 33.1419 33.5 55.9238C33.5002 78.7058 51.5609 97.3377 74.0381 97.3379C96.5155 97.3379 114.577 78.7059 114.577 55.9238C114.577 33.1417 96.5154 14.5107 74.0381 14.5107ZM74.0381 22.5107C91.9198 22.5107 106.577 37.3805 106.577 55.9238C106.577 74.4672 91.9198 89.3379 74.0381 89.3379C56.1566 89.3377 41.5002 74.4671 41.5 55.9238C41.5002 37.3806 56.1566 22.511 74.0381 22.5107Z" fill="url(#paint1_linear_31_1727)"/>
<defs>
<linearGradient id="paint0_linear_31_1727" x1="73.0771" y1="5" x2="73.0771" y2="104.77" gradientUnits="userSpaceOnUse">
<stop stop-color="#69C7E5"/>
<stop offset="1" stop-color="#8875D8"/>
</linearGradient>
<linearGradient id="paint1_linear_31_1727" x1="73.0771" y1="5" x2="73.0771" y2="104.77" gradientUnits="userSpaceOnUse">
<stop stop-color="#69C7E5"/>
<stop offset="0.505" stop-color="#B1C0D8"/>
<stop offset="1" stop-color="#8875D8"/>
</linearGradient>
</defs>
</svg>
