<svg width="171" height="180" viewBox="0 0 171 180" fill="none" xmlns="http://www.w3.org/2000/svg">
<g filter="url(#filter0_d_31_1753)">
<path d="M77.4502 61.0752C77.4502 59.5177 77.912 57.9951 78.7774 56.7001C79.6427 55.405 80.8726 54.3957 82.3116 53.7996C83.7505 53.2036 85.3339 53.0477 86.8615 53.3515C88.3891 53.6554 89.7923 54.4054 90.8937 55.5067C91.995 56.6081 92.745 58.0113 93.0489 59.5389C93.3527 61.0665 93.1968 62.6499 92.6007 64.0888C92.0047 65.5278 90.9953 66.7577 89.7003 67.623C88.4053 68.4883 86.8827 68.9502 85.3252 68.9502C83.2366 68.9502 81.2336 68.1205 79.7567 66.6437C78.2799 65.1668 77.4502 63.1638 77.4502 61.0752ZM113.338 76.9855C113.133 75.9774 112.582 75.0725 111.781 74.4271C110.98 73.7816 109.979 73.4361 108.95 73.4502H61.7002C60.6742 73.4501 59.6791 73.8007 58.8796 74.4437C58.0802 75.0866 57.5245 75.9835 57.3046 76.9856C57.0846 77.9877 57.2137 79.0348 57.6705 79.9535C58.1272 80.8722 58.8841 81.6072 59.8158 82.0368H59.8327L74.9893 88.7108L68.8242 112.139C68.3538 113.215 68.3228 114.433 68.7379 115.532C69.1531 116.631 69.9815 117.524 71.0461 118.02C71.6412 118.302 72.2915 118.449 72.9502 118.45C73.7985 118.451 74.6299 118.213 75.3484 117.762C76.067 117.311 76.6435 116.666 77.0114 115.902L85.3252 101.575L93.6446 115.919C94.162 116.972 95.07 117.781 96.1751 118.174C97.2802 118.567 98.4951 118.513 99.561 118.023C100.627 117.534 101.46 116.647 101.882 115.553C102.304 114.459 102.282 113.243 101.821 112.164L95.6555 88.7361L110.843 82.0536C111.785 81.6335 112.551 80.8965 113.007 79.9707C113.463 79.0449 113.58 77.9887 113.338 76.9855Z" fill="#CCE3FF"/>
</g>
<defs>
<filter id="filter0_d_31_1753" x="-7.87481" y="-2.24981" width="186.4" height="186.4" filterUnits="userSpaceOnUse" color-interpolation-filters="sRGB">
<feFlood flood-opacity="0" result="BackgroundImageFix"/>
<feColorMatrix in="SourceAlpha" type="matrix" values="0 0 0 0 0 0 0 0 0 0 0 0 0 0 0 0 0 0 127 0" result="hardAlpha"/>
<feOffset dy="4"/>
<feGaussianBlur stdDeviation="28.6"/>
<feComposite in2="hardAlpha" operator="out"/>
<feColorMatrix type="matrix" values="0 0 0 0 1 0 0 0 0 1 0 0 0 0 1 0 0 0 0.6 0"/>
<feBlend mode="normal" in2="BackgroundImageFix" result="effect1_dropShadow_31_1753"/>
<feBlend mode="normal" in="SourceGraphic" in2="effect1_dropShadow_31_1753" result="shape"/>
</filter>
</defs>
</svg>
