<svg width="150" height="150" viewBox="0 0 150 150" fill="none" xmlns="http://www.w3.org/2000/svg">
<path d="M20.4813 98.0606H51.2452V118.2C50.2198 118.111 47.451 118.039 44.5797 118.469C41.7084 118.899 41.6743 121.87 42.0161 123.303C47.4852 130.911 58.9362 146.665 60.9871 148.814C63.0381 150.962 64.5763 149.709 65.089 148.814C70.2163 142.1 81.0862 127.653 83.5473 123.571C86.0084 119.489 83.3764 118.469 81.7528 118.469H75.3436V78.1883H68.9345C65.653 77.5438 66.1999 74.1603 66.8836 72.549C72.0963 65.388 83.0346 50.4215 85.0855 47.8435C87.1364 45.2656 89.1874 46.7694 89.9565 47.8435L108.928 73.3546C109.338 76.5771 107.218 77.9198 106.108 78.1883H99.6984V97.7916H127.386C136.017 96.7174 152.305 89.2521 148.408 67.9839C144.511 46.7157 127.984 44.2632 120.208 45.6954C120.977 37.6393 114.055 2.1923 80.4709 4.07207C53.6038 5.57588 45.5197 28.3301 44.8361 39.5192C29.8643 36.7264 25.6087 46.9488 25.3523 52.4091C9.76528 51.7646 3.81753 62.8821 2.79204 68.5214C-1.5149 88.2858 12.7903 96.4493 20.4813 98.0606Z" fill="url(#paint0_linear_31_1725)"/>
<defs>
<linearGradient id="paint0_linear_31_1725" x1="75.5" y1="4" x2="75.5" y2="150" gradientUnits="userSpaceOnUse">
<stop stop-color="#69C7E5"/>
<stop offset="0.505" stop-color="#B1C0D8"/>
<stop offset="1" stop-color="#8875D8"/>
</linearGradient>
</defs>
</svg>
