<svg width="150" height="150" viewBox="0 0 150 150" fill="none" xmlns="http://www.w3.org/2000/svg">
<rect x="56.7856" y="119.365" width="36.4286" height="5" rx="2.5" fill="#8875D8"/>
<rect x="57" y="129" width="36" height="5" rx="2.5" fill="#8875D8"/>
<path d="M61 139H88C88 142.314 85.3137 145 82 145H67C63.6863 145 61 142.314 61 139Z" fill="#8875D8"/>
<path d="M63.1965 5.80566C72.468 4.07788 93.9908 3.99211 105.911 17.4688C120.812 34.3147 117.832 45.6536 117.17 56.9922C116.508 68.3309 101.607 87.7684 99.9514 90.0361C98.2958 92.3047 94.9849 104.29 93.9915 109.797C93.1968 114.203 89.4655 116.169 87.6995 116.601H61.2102C57.2368 115.045 56.4641 111.417 56.5745 109.797C55.2498 96.8386 45.6473 82.9087 38.0315 70.2744C31.9388 60.1668 31.7394 46.8407 32.4016 41.4414C34.2561 18.894 53.7043 8.28938 63.1965 5.80566ZM51.0803 30.5479C51.8049 28.4847 51.8049 24.8144 46.0081 26.6387C40.0904 34.2396 32.6029 53.8718 49.9934 71.5928C52.288 72.3529 56.4422 72.44 54.7034 66.707C49.7519 61.3864 42.0952 46.7053 51.0803 30.5479Z" fill="url(#paint0_linear_31_1734)"/>
<defs>
<linearGradient id="paint0_linear_31_1734" x1="74.5582" y1="5" x2="74.5582" y2="116.511" gradientUnits="userSpaceOnUse">
<stop stop-color="#69C7E5"/>
<stop offset="0.625" stop-color="#B1C0D8"/>
<stop offset="1" stop-color="#6E55CF"/>
</linearGradient>
</defs>
</svg>
