<svg width="169" height="178" viewBox="0 0 169 178" fill="none" xmlns="http://www.w3.org/2000/svg">
<g filter="url(#filter0_d_31_1747)">
<path d="M90.9484 113.954C90.9484 114.55 90.7114 115.123 90.2894 115.545C89.8674 115.967 89.2951 116.204 88.6984 116.204H79.6984C79.1017 116.204 78.5294 115.967 78.1074 115.545C77.6855 115.123 77.4484 114.55 77.4484 113.954C77.4484 113.357 77.6855 112.785 78.1074 112.363C78.5294 111.941 79.1017 111.704 79.6984 111.704H88.6984C89.2951 111.704 89.8674 111.941 90.2894 112.363C90.7114 112.785 90.9484 113.357 90.9484 113.954ZM111.092 94.7809L107.615 110.427C107.45 111.17 107.1 111.859 106.596 112.429C106.092 113 105.452 113.434 104.736 113.69C104.019 113.946 103.249 114.016 102.498 113.893C101.747 113.77 101.039 113.459 100.441 112.989L92.7793 107.204H75.6231L67.9562 112.989C67.358 113.459 66.6502 113.77 65.899 113.893C65.1479 114.016 64.3779 113.946 63.6612 113.69C62.9445 113.434 62.3044 113 61.8007 112.429C61.2971 111.859 60.9465 111.17 60.7815 110.427L57.3053 94.7809C57.1578 94.1095 57.1653 93.4133 57.3271 92.7451C57.4889 92.077 57.8007 91.4545 58.239 90.9249L66.2715 81.2893C66.5411 77.7482 67.3541 74.2697 68.6818 70.9759C72.31 61.8803 78.8068 56.1737 81.4422 54.1431C82.231 53.5319 83.2005 53.2002 84.1984 53.2002C85.1963 53.2002 86.1659 53.5319 86.9547 54.1431C89.5815 56.1737 96.0868 61.8803 99.715 70.9759C101.043 74.2697 101.856 77.7482 102.125 81.2893L110.158 90.9249C110.596 91.4545 110.908 92.077 111.07 92.7451C111.232 93.4133 111.239 94.1095 111.092 94.7809ZM71.9331 104.343C68.9125 98.844 67.0787 93.4375 66.4318 88.1237L61.6984 93.805L65.1747 109.454L65.2253 109.417L71.9331 104.343ZM87.5734 79.0787C87.5734 78.4112 87.3755 77.7587 87.0046 77.2037C86.6338 76.6486 86.1067 76.2161 85.49 75.9606C84.8733 75.7052 84.1947 75.6383 83.54 75.7686C82.8853 75.8988 82.2839 76.2202 81.8119 76.6922C81.3399 77.1642 81.0185 77.7656 80.8883 78.4203C80.758 79.075 80.8249 79.7536 81.0803 80.3703C81.3358 80.987 81.7683 81.5141 82.3234 81.8849C82.8784 82.2558 83.5309 82.4537 84.1984 82.4537C85.0935 82.4537 85.952 82.0981 86.5849 81.4652C87.2178 80.8323 87.5734 79.9738 87.5734 79.0787ZM106.698 93.805L101.965 88.1237C101.324 93.4262 99.49 98.8346 96.4637 104.349L103.172 109.412L103.222 109.448L106.698 93.805Z" fill="#CCE3FF"/>
</g>
<defs>
<filter id="filter0_d_31_1747" x="-9.00151" y="-2.2459" width="186.4" height="186.4" filterUnits="userSpaceOnUse" color-interpolation-filters="sRGB">
<feFlood flood-opacity="0" result="BackgroundImageFix"/>
<feColorMatrix in="SourceAlpha" type="matrix" values="0 0 0 0 0 0 0 0 0 0 0 0 0 0 0 0 0 0 127 0" result="hardAlpha"/>
<feOffset dy="4"/>
<feGaussianBlur stdDeviation="28.6"/>
<feComposite in2="hardAlpha" operator="out"/>
<feColorMatrix type="matrix" values="0 0 0 0 1 0 0 0 0 1 0 0 0 0 1 0 0 0 0.6 0"/>
<feBlend mode="normal" in2="BackgroundImageFix" result="effect1_dropShadow_31_1747"/>
<feBlend mode="normal" in="SourceGraphic" in2="effect1_dropShadow_31_1747" result="shape"/>
</filter>
</defs>
</svg>
