<svg width="32" height="32" viewBox="0 0 32 32" fill="none" xmlns="http://www.w3.org/2000/svg">
<path d="M28.8662 27.5005C28.7784 27.6525 28.6521 27.7788 28.5001 27.8666C28.348 27.9543 28.1755 28.0005 28 28.0005H3.99995C3.8245 28.0003 3.65219 27.954 3.50031 27.8661C3.34843 27.7783 3.22234 27.652 3.13469 27.5C3.04705 27.348 3.00093 27.1757 3.00098 27.0002C3.00102 26.8248 3.04723 26.6524 3.13495 26.5005C5.0387 23.2092 7.97245 20.8492 11.3962 19.7305C9.70266 18.7223 8.38688 17.1861 7.65094 15.3577C6.91499 13.5294 6.79956 11.51 7.32238 9.60967C7.8452 7.70936 8.97735 6.03321 10.545 4.83863C12.1126 3.64404 14.029 2.99707 16 2.99707C17.9709 2.99707 19.8873 3.64404 21.4549 4.83863C23.0226 6.03321 24.1547 7.70936 24.6775 9.60967C25.2003 11.51 25.0849 13.5294 24.349 15.3577C23.613 17.1861 22.2972 18.7223 20.6037 19.7305C24.0275 20.8492 26.9612 23.2092 28.865 26.5005C28.9529 26.6524 28.9993 26.8248 28.9996 27.0003C28.9998 27.1758 28.9538 27.3483 28.8662 27.5005Z" fill="#9D9D9D"/>
</svg>
