<svg width="173" height="173" viewBox="0 0 173 173" fill="none" xmlns="http://www.w3.org/2000/svg">
<g filter="url(#filter0_d_31_1749)">
<path d="M86.45 53.2002C80.6649 53.2002 75.0097 54.9157 70.1995 58.1297C65.3894 61.3437 61.6404 65.912 59.4265 71.2567C57.2126 76.6014 56.6334 82.4826 57.762 88.1566C58.8906 93.8305 61.6764 99.0424 65.7671 103.133C69.8578 107.224 75.0696 110.01 80.7436 111.138C86.4175 112.267 92.2987 111.688 97.6435 109.474C102.988 107.26 107.556 103.511 110.77 98.7006C113.984 93.8905 115.7 88.2353 115.7 82.4502C115.692 74.6951 112.607 67.26 107.124 61.7764C101.64 56.2927 94.205 53.2084 86.45 53.2002ZM100.957 69.4536L91.9568 87.4536C91.8466 87.6706 91.6703 87.8469 91.4534 87.9571L73.4534 96.9571C73.2421 97.0632 73.0027 97.1001 72.7692 97.0625C72.5357 97.0248 72.3201 96.9145 72.1529 96.7473C71.9856 96.5801 71.8754 96.3644 71.8377 96.1309C71.8 95.8975 71.8369 95.6581 71.9431 95.4468L80.9431 77.4468C81.0533 77.2298 81.2296 77.0535 81.4465 76.9433L99.4465 67.9433C99.6578 67.8372 99.8972 67.8003 100.131 67.8379C100.364 67.8756 100.58 67.9859 100.747 68.1531C100.914 68.3203 101.025 68.536 101.062 68.7694C101.1 69.0029 101.063 69.2423 100.957 69.4536Z" fill="#CCE3FF"/>
</g>
<defs>
<filter id="filter0_d_31_1749" x="-6.75005" y="-6.74981" width="186.4" height="186.4" filterUnits="userSpaceOnUse" color-interpolation-filters="sRGB">
<feFlood flood-opacity="0" result="BackgroundImageFix"/>
<feColorMatrix in="SourceAlpha" type="matrix" values="0 0 0 0 0 0 0 0 0 0 0 0 0 0 0 0 0 0 127 0" result="hardAlpha"/>
<feOffset dy="4"/>
<feGaussianBlur stdDeviation="28.6"/>
<feComposite in2="hardAlpha" operator="out"/>
<feColorMatrix type="matrix" values="0 0 0 0 1 0 0 0 0 1 0 0 0 0 1 0 0 0 0.6 0"/>
<feBlend mode="normal" in2="BackgroundImageFix" result="effect1_dropShadow_31_1749"/>
<feBlend mode="normal" in="SourceGraphic" in2="effect1_dropShadow_31_1749" result="shape"/>
</filter>
</defs>
</svg>
