<svg width="185" height="169" viewBox="0 0 185 169" fill="none" xmlns="http://www.w3.org/2000/svg">
<g filter="url(#filter0_d_31_1761)">
<path d="M120.762 68.9502C120.65 68.6689 120.532 68.3877 120.411 68.1064C118.596 63.9215 115.66 60.32 111.926 57.7002H117.95C118.547 57.7002 119.119 57.4631 119.541 57.0412C119.963 56.6192 120.2 56.0469 120.2 55.4502C120.2 54.8535 119.963 54.2812 119.541 53.8592C119.119 53.4372 118.547 53.2002 117.95 53.2002H88.7C82.479 53.2081 76.4885 55.5553 71.918 59.7756C67.3475 63.996 64.5313 69.7808 64.0287 75.9814C62.0852 76.4646 60.3583 77.5822 59.1214 79.1573C57.8846 80.7324 57.2084 82.675 57.2 84.6777C57.2 85.2744 57.437 85.8467 57.859 86.2687C58.2809 86.6906 58.8532 86.9277 59.45 86.9277C60.0467 86.9277 60.619 86.6906 61.0409 86.2687C61.4629 85.8467 61.7 85.2744 61.7 84.6777C61.7005 83.8572 61.9253 83.0525 62.3501 82.3506C62.775 81.6486 63.3836 81.0762 64.1103 80.6952C64.6703 85.7432 66.7752 90.4953 70.1375 94.3021L73.67 104.191C73.9822 105.065 74.5575 105.822 75.3169 106.357C76.0762 106.892 76.9824 107.178 77.9112 107.178H81.4887C82.417 107.178 83.3226 106.891 84.0814 106.356C84.8401 105.821 85.415 105.065 85.7271 104.191L86.2671 102.678H102.383L102.923 104.191C103.235 105.065 103.81 105.821 104.569 106.356C105.327 106.891 106.233 107.178 107.161 107.178H110.739C111.667 107.178 112.573 106.891 113.331 106.356C114.09 105.821 114.665 105.065 114.977 104.191L119.536 91.4277H120.2C121.99 91.4277 123.707 90.7165 124.973 89.4507C126.239 88.1848 126.95 86.4679 126.95 84.6777V75.6777C126.95 73.9847 126.314 72.3534 125.168 71.1073C124.022 69.8612 122.45 69.0913 120.762 68.9502ZM99.95 64.4277H88.7C88.1032 64.4277 87.5309 64.1906 87.109 63.7687C86.687 63.3467 86.45 62.7744 86.45 62.1777C86.45 61.581 86.687 61.0087 87.109 60.5867C87.5309 60.1647 88.1032 59.9277 88.7 59.9277H99.95C100.547 59.9277 101.119 60.1647 101.541 60.5867C101.963 61.0087 102.2 61.581 102.2 62.1777C102.2 62.7744 101.963 63.3467 101.541 63.7687C101.119 64.1906 100.547 64.4277 99.95 64.4277ZM107.825 80.1777C107.157 80.1777 106.505 79.9798 105.95 79.6089C105.395 79.2381 104.962 78.711 104.707 78.0943C104.451 77.4776 104.385 76.799 104.515 76.1443C104.645 75.4896 104.966 74.8882 105.438 74.4162C105.91 73.9442 106.512 73.6228 107.167 73.4925C107.821 73.3623 108.5 73.4292 109.117 73.6846C109.733 73.94 110.26 74.3726 110.631 74.9276C111.002 75.4827 111.2 76.1352 111.2 76.8027C111.2 77.6978 110.844 78.5562 110.211 79.1892C109.578 79.8221 108.72 80.1777 107.825 80.1777Z" fill="#CCE3FF"/>
</g>
<defs>
<filter id="filter0_d_31_1761" x="-4.95911e-05" y="-9.02227" width="186.4" height="186.4" filterUnits="userSpaceOnUse" color-interpolation-filters="sRGB">
<feFlood flood-opacity="0" result="BackgroundImageFix"/>
<feColorMatrix in="SourceAlpha" type="matrix" values="0 0 0 0 0 0 0 0 0 0 0 0 0 0 0 0 0 0 127 0" result="hardAlpha"/>
<feOffset dy="4"/>
<feGaussianBlur stdDeviation="28.6"/>
<feComposite in2="hardAlpha" operator="out"/>
<feColorMatrix type="matrix" values="0 0 0 0 1 0 0 0 0 1 0 0 0 0 1 0 0 0 0.6 0"/>
<feBlend mode="normal" in2="BackgroundImageFix" result="effect1_dropShadow_31_1761"/>
<feBlend mode="normal" in="SourceGraphic" in2="effect1_dropShadow_31_1761" result="shape"/>
</filter>
</defs>
</svg>
