<svg width="72" height="72" viewBox="0 0 72 72" fill="none" xmlns="http://www.w3.org/2000/svg">
<g clip-path="url(#clip0_32_2361)">
<path d="M25.875 0C30.2203 0 33.75 3.52969 33.75 7.875V64.125C33.75 68.4703 30.2203 72 25.875 72C21.8109 72 18.4641 68.9203 18.0422 64.9547C17.3109 65.1516 16.5375 65.25 15.75 65.25C10.7859 65.25 6.75 61.2141 6.75 56.25C6.75 55.2094 6.93281 54.1969 7.25625 53.2687C3.00937 51.6656 0 47.5594 0 42.75C0 38.2641 2.62969 34.3828 6.44062 32.5828C5.21719 31.05 4.5 29.1094 4.5 27C4.5 22.6828 7.5375 19.0828 11.5875 18.1969C11.3625 17.4234 11.25 16.5938 11.25 15.75C11.25 11.5453 14.1469 8.00156 18.0422 7.01719C18.4641 3.07969 21.8109 0 25.875 0ZM46.125 0C50.1891 0 53.5219 3.07969 53.9578 7.01719C57.8672 8.00156 60.75 11.5312 60.75 15.75C60.75 16.5938 60.6375 17.4234 60.4125 18.1969C64.4625 19.0687 67.5 22.6828 67.5 27C67.5 29.1094 66.7828 31.05 65.5594 32.5828C69.3703 34.3828 72 38.2641 72 42.75C72 47.5594 68.9906 51.6656 64.7438 53.2687C65.0672 54.1969 65.25 55.2094 65.25 56.25C65.25 61.2141 61.2141 65.25 56.25 65.25C55.4625 65.25 54.6891 65.1516 53.9578 64.9547C53.5359 68.9203 50.1891 72 46.125 72C41.7797 72 38.25 68.4703 38.25 64.125V7.875C38.25 3.52969 41.7797 0 46.125 0Z" fill="url(#paint0_linear_32_2361)"/>
</g>
<defs>
<linearGradient id="paint0_linear_32_2361" x1="41.2214" y1="0" x2="41.2214" y2="72" gradientUnits="userSpaceOnUse">
<stop stop-color="#69C7E5"/>
<stop offset="0.655" stop-color="#B1C0D8"/>
<stop offset="1" stop-color="#8875D8"/>
</linearGradient>
<clipPath id="clip0_32_2361">
<path d="M0 0H72V72H0V0Z" fill="white"/>
</clipPath>
</defs>
</svg>
