<svg width="164" height="178" viewBox="0 0 164 178" fill="none" xmlns="http://www.w3.org/2000/svg">
<g filter="url(#filter0_d_31_1743)">
<path d="M95.4503 113.957C95.4503 114.554 95.2133 115.126 94.7913 115.548C94.3694 115.97 93.7971 116.207 93.2003 116.207H70.7003C70.1036 116.207 69.5313 115.97 69.1093 115.548C68.6874 115.126 68.4503 114.554 68.4503 113.957C68.4503 113.361 68.6874 112.788 69.1093 112.366C69.5313 111.944 70.1036 111.707 70.7003 111.707H93.2003C93.7971 111.707 94.3694 111.944 94.7913 112.366C95.2133 112.788 95.4503 113.361 95.4503 113.957ZM106.7 77.9574C106.71 81.7082 105.863 85.4118 104.223 88.7853C102.583 92.1587 100.195 95.1131 97.2391 97.4227C96.6865 97.8463 96.238 98.3906 95.928 99.0141C95.618 99.6375 95.4546 100.324 95.4503 101.02V102.707C95.4503 103.901 94.9762 105.045 94.1323 105.889C93.2884 106.733 92.1438 107.207 90.9503 107.207H72.9503C71.7568 107.207 70.6123 106.733 69.7683 105.889C68.9244 105.045 68.4503 103.901 68.4503 102.707V101.02C68.4499 100.332 68.2917 99.6532 67.9879 99.036C67.6842 98.4187 67.2429 97.8793 66.6981 97.4593C63.7501 95.1633 61.3629 92.2267 59.7174 88.8719C58.0719 85.517 57.2112 81.8318 57.2003 78.0952C57.1272 64.6908 67.9609 53.528 81.3541 53.2074C84.6541 53.1279 87.9367 53.7093 91.0087 54.9174C94.0807 56.1256 96.8799 57.936 99.2417 60.2423C101.603 62.5485 103.48 65.3038 104.761 68.3462C106.042 71.3885 106.701 74.6564 106.7 77.9574ZM92.5422 78.6155C92.3332 78.4063 92.0851 78.2404 91.8119 78.1271C91.5388 78.0139 91.246 77.9556 90.9503 77.9556C90.6546 77.9556 90.3619 78.0139 90.0887 78.1271C89.8156 78.2404 89.5674 78.4063 89.3584 78.6155L81.9503 86.0264L74.5422 78.6155C74.12 78.1933 73.5474 77.9561 72.9503 77.9561C72.3533 77.9561 71.7806 78.1933 71.3584 78.6155C70.9363 79.0377 70.6991 79.6103 70.6991 80.2074C70.6991 80.8044 70.9363 81.3771 71.3584 81.7993L79.7003 90.1383V100.457C79.7003 101.054 79.9374 101.626 80.3593 102.048C80.7813 102.47 81.3536 102.707 81.9503 102.707C82.5471 102.707 83.1194 102.47 83.5413 102.048C83.9633 101.626 84.2003 101.054 84.2003 100.457V90.1383L92.5422 81.7993C92.7514 81.5903 92.9174 81.3421 93.0306 81.069C93.1438 80.7958 93.2021 80.5031 93.2021 80.2074C93.2021 79.9117 93.1438 79.6189 93.0306 79.3458C92.9174 79.0726 92.7514 78.8245 92.5422 78.6155Z" fill="#CCE3FF"/>
</g>
<defs>
<filter id="filter0_d_31_1743" x="-11.2496" y="-4.49297" width="186.4" height="186.4" filterUnits="userSpaceOnUse" color-interpolation-filters="sRGB">
<feFlood flood-opacity="0" result="BackgroundImageFix"/>
<feColorMatrix in="SourceAlpha" type="matrix" values="0 0 0 0 0 0 0 0 0 0 0 0 0 0 0 0 0 0 127 0" result="hardAlpha"/>
<feOffset dy="4"/>
<feGaussianBlur stdDeviation="28.6"/>
<feComposite in2="hardAlpha" operator="out"/>
<feColorMatrix type="matrix" values="0 0 0 0 1 0 0 0 0 1 0 0 0 0 1 0 0 0 0.6 0"/>
<feBlend mode="normal" in2="BackgroundImageFix" result="effect1_dropShadow_31_1743"/>
<feBlend mode="normal" in="SourceGraphic" in2="effect1_dropShadow_31_1743" result="shape"/>
</filter>
</defs>
</svg>
