<svg width="150" height="150" viewBox="0 0 150 150" fill="none" xmlns="http://www.w3.org/2000/svg">
<path d="M75 23.4375C63.8748 23.4375 52.9995 26.7365 43.7492 32.9173C34.4989 39.0982 27.2892 47.8832 23.0318 58.1616C18.7744 68.4399 17.6604 79.7499 19.8309 90.6613C22.0013 101.573 27.3586 111.596 35.2253 119.462C43.092 127.329 53.1148 132.686 64.0262 134.857C74.9376 137.027 86.2476 135.913 96.526 131.656C106.804 127.398 115.589 120.189 121.77 110.938C127.951 101.688 131.25 90.8127 131.25 79.6875C131.233 64.7743 125.301 50.4768 114.756 39.9316C104.211 29.3864 89.9132 23.4546 75 23.4375ZM101.754 59.5664L78.3164 83.0039C77.8809 83.4394 77.3639 83.7849 76.7949 84.0206C76.2258 84.2563 75.6159 84.3776 75 84.3776C74.3841 84.3776 73.7742 84.2563 73.2052 84.0206C72.6362 83.7849 72.1191 83.4394 71.6836 83.0039C71.2481 82.5684 70.9026 82.0514 70.6669 81.4823C70.4312 80.9133 70.3099 80.3034 70.3099 79.6875C70.3099 79.0716 70.4312 78.4617 70.6669 77.8927C70.9026 77.3236 71.2481 76.8066 71.6836 76.3711L95.1211 52.9336C95.5566 52.4981 96.0737 52.1526 96.6427 51.9169C97.2117 51.6812 97.8216 51.5599 98.4375 51.5599C99.0534 51.5599 99.6633 51.6812 100.232 51.9169C100.801 52.1526 101.318 52.4981 101.754 52.9336C102.189 53.3691 102.535 53.8861 102.771 54.4552C103.006 55.0242 103.128 55.6341 103.128 56.25C103.128 56.8659 103.006 57.4758 102.771 58.0448C102.535 58.6139 102.189 59.1309 101.754 59.5664ZM56.25 9.375C56.25 8.1318 56.7439 6.93951 57.623 6.06044C58.502 5.18136 59.6943 4.6875 60.9375 4.6875H89.0625C90.3057 4.6875 91.498 5.18136 92.3771 6.06044C93.2562 6.93951 93.75 8.1318 93.75 9.375C93.75 10.6182 93.2562 11.8105 92.3771 12.6896C91.498 13.5686 90.3057 14.0625 89.0625 14.0625H60.9375C59.6943 14.0625 58.502 13.5686 57.623 12.6896C56.7439 11.8105 56.25 10.6182 56.25 9.375Z" fill="url(#paint0_linear_31_1697)"/>
<defs>
<linearGradient id="paint0_linear_31_1697" x1="75" y1="4.6875" x2="75" y2="135.938" gradientUnits="userSpaceOnUse">
<stop stop-color="#69C7E5"/>
<stop offset="0.58" stop-color="#B1C0D8"/>
<stop offset="1" stop-color="#8875D8"/>
</linearGradient>
</defs>
</svg>
