<svg width="182" height="173" viewBox="0 0 182 173" fill="none" xmlns="http://www.w3.org/2000/svg">
<g filter="url(#filter0_d_31_1751)">
<path d="M122.07 68.5631C121.235 69.4009 120.243 70.0653 119.15 70.518C118.057 70.9708 116.886 71.203 115.703 71.2012C114.979 71.2008 114.257 71.114 113.554 70.9425L106.064 84.8531C106.149 84.9318 106.233 85.0106 106.315 85.0922C107.505 86.2825 108.337 87.7826 108.717 89.4223C109.098 91.0619 109.01 92.7754 108.466 94.3679C107.921 95.9605 106.941 97.3685 105.636 98.4318C104.331 99.4952 102.754 100.171 101.085 100.384C99.4149 100.596 97.7192 100.336 96.1899 99.6323C94.6607 98.9291 93.3593 97.8112 92.4335 96.4055C91.5078 94.9998 90.9948 93.3627 90.9528 91.68C90.9108 89.9974 91.3414 88.3367 92.1959 86.8865L86.5203 81.2109C85.1357 82.0244 83.5587 82.4527 81.9528 82.4512C81.228 82.4518 80.5057 82.3659 79.8012 82.1953L72.3115 96.1003C72.3959 96.179 72.4831 96.2578 72.5646 96.3393C73.8231 97.5981 74.6801 99.2018 75.0272 100.948C75.3743 102.693 75.1959 104.503 74.5147 106.147C73.8334 107.792 72.6799 109.197 71.1999 110.186C69.7199 111.175 67.9799 111.703 66.2 111.703C64.42 111.703 62.68 111.175 61.2 110.186C59.72 109.197 58.5665 107.792 57.8852 106.147C57.204 104.503 57.0256 102.693 57.3727 100.948C57.7198 99.2018 58.5768 97.5981 59.8353 96.3393C60.9303 95.2448 62.2892 94.4513 63.7805 94.0355C65.2719 93.6196 66.8453 93.5956 68.3487 93.9656L75.8384 80.055C75.754 79.9762 75.6696 79.8975 75.5881 79.8159C74.7521 78.9802 74.089 77.9879 73.6366 76.8958C73.1842 75.8038 72.9513 74.6333 72.9513 73.4512C72.9513 72.2692 73.1842 71.0987 73.6366 70.0066C74.089 68.9145 74.7521 67.9223 75.5881 67.0865C77.1365 65.5338 79.1985 64.5997 81.3868 64.4598C83.5752 64.3199 85.7393 64.9838 87.4728 66.3267C89.2063 67.6697 90.3899 69.5993 90.8013 71.7532C91.2126 73.9071 90.8234 76.1371 89.7068 78.0243L95.3825 83.7C97.4104 82.5118 99.8209 82.1587 102.104 82.7156L109.594 68.805C109.51 68.7262 109.422 68.6475 109.341 68.5659C108.505 67.7302 107.842 66.7379 107.389 65.6458C106.937 64.5538 106.704 63.3833 106.704 62.2012C106.704 61.0192 106.937 59.8487 107.389 58.7566C107.842 57.6645 108.505 56.6723 109.341 55.8365C111.029 54.1485 113.318 53.2002 115.706 53.2002C118.093 53.2002 120.382 54.1485 122.07 55.8365C123.758 57.5246 124.707 59.814 124.707 62.2012C124.707 64.5884 123.758 66.8779 122.07 68.5659V68.5631Z" fill="#CCE3FF"/>
</g>
<defs>
<filter id="filter0_d_31_1751" x="-2.24712" y="-6.74883" width="186.4" height="186.4" filterUnits="userSpaceOnUse" color-interpolation-filters="sRGB">
<feFlood flood-opacity="0" result="BackgroundImageFix"/>
<feColorMatrix in="SourceAlpha" type="matrix" values="0 0 0 0 0 0 0 0 0 0 0 0 0 0 0 0 0 0 127 0" result="hardAlpha"/>
<feOffset dy="4"/>
<feGaussianBlur stdDeviation="28.6"/>
<feComposite in2="hardAlpha" operator="out"/>
<feColorMatrix type="matrix" values="0 0 0 0 1 0 0 0 0 1 0 0 0 0 1 0 0 0 0.6 0"/>
<feBlend mode="normal" in2="BackgroundImageFix" result="effect1_dropShadow_31_1751"/>
<feBlend mode="normal" in="SourceGraphic" in2="effect1_dropShadow_31_1751" result="shape"/>
</filter>
</defs>
</svg>
