<svg width="150" height="150" viewBox="0 0 150 150" fill="none" xmlns="http://www.w3.org/2000/svg">
<path d="M57.0898 4.77344C70.3718 -1.20468 80.3832 -0.326788 83.7285 0.859375C94.3015 2.79692 114.965 12.0394 111 42.5H96.5L95.375 32.4111C94.2597 25.808 87.7174 13.101 70.4707 15.0938C54.5465 16.9338 52.7509 38.1951 53.999 51H121.255C132.16 51 141 59.8404 141 70.7451V130.255C141 141.16 132.16 150 121.255 150H29.7451C18.8404 150 10 141.16 10 130.255V70.7451C10 59.8404 18.8404 51 29.7451 51H39V31.9375C39.4956 25.374 43.8077 10.7518 57.0898 4.77344ZM76.1914 83C66.1447 83 58.0002 89.0092 58 96.4219C58 102.297 63.1166 107.29 70.2412 109.108C69.7613 110.045 69.4893 111.106 69.4893 112.231V119.23C69.4893 123.02 72.562 126.092 76.3516 126.092C80.141 126.092 83.2128 123.02 83.2129 119.23V112.231C83.2128 111.077 82.9263 109.991 82.4229 109.036C89.4007 107.159 94.3828 102.22 94.3828 96.4219C94.3826 89.0091 86.2381 83 76.1914 83Z" fill="url(#paint0_linear_31_1771)"/>
<defs>
<linearGradient id="paint0_linear_31_1771" x1="85" y1="0" x2="85" y2="150" gradientUnits="userSpaceOnUse">
<stop stop-color="#69C7E5"/>
<stop offset="0.655" stop-color="#B1C0D8"/>
<stop offset="1" stop-color="#8875D8"/>
</linearGradient>
</defs>
</svg>
