<svg width="150" height="150" viewBox="0 0 150 150" fill="none" xmlns="http://www.w3.org/2000/svg">
<path d="M132.422 51.6094C132.188 51.0234 131.941 50.4375 131.689 49.8516C127.909 41.133 121.791 33.6299 114.012 28.1719H126.562C127.806 28.1719 128.998 27.678 129.877 26.7989C130.756 25.9199 131.25 24.7276 131.25 23.4844C131.25 22.2412 130.756 21.0489 129.877 20.1698C128.998 19.2907 127.806 18.7969 126.562 18.7969H65.625C52.6646 18.8133 40.1844 23.7033 30.6626 32.4956C21.1408 41.288 15.2737 53.3398 14.2266 66.2578C10.1775 67.2643 6.57984 69.5926 4.00306 72.8741C1.42627 76.1556 0.017587 80.2028 0 84.375C0 85.6182 0.49386 86.8105 1.37294 87.6896C2.25201 88.5686 3.4443 89.0625 4.6875 89.0625C5.9307 89.0625 7.12299 88.5686 8.00206 87.6896C8.88114 86.8105 9.375 85.6182 9.375 84.375C9.37609 82.6657 9.8445 80.9892 10.7296 79.5268C11.6146 78.0644 12.8826 76.8719 14.3965 76.0781C15.5633 86.5949 19.9485 96.4949 26.9531 104.426L34.3125 125.027C34.9631 126.85 36.1616 128.426 37.7436 129.54C39.3256 130.654 41.2135 131.251 43.1484 131.25H50.6016C52.5355 131.25 54.4221 130.652 56.0029 129.538C57.5837 128.424 58.7814 126.849 59.4316 125.027L60.5566 121.875H94.1309L95.2559 125.027C95.9061 126.849 97.1038 128.424 98.6846 129.538C100.265 130.652 102.152 131.25 104.086 131.25H111.539C113.473 131.25 115.36 130.652 116.94 129.538C118.521 128.424 119.719 126.849 120.369 125.027L129.867 98.4375H131.25C134.98 98.4375 138.556 96.9559 141.194 94.3187C143.831 91.6815 145.312 88.1046 145.312 84.375V65.625C145.313 62.0979 143.988 58.6994 141.6 56.1034C139.213 53.5073 135.937 51.9033 132.422 51.6094ZM89.0625 42.1875H65.625C64.3818 42.1875 63.1895 41.6936 62.3104 40.8146C61.4314 39.9355 60.9375 38.7432 60.9375 37.5C60.9375 36.2568 61.4314 35.0645 62.3104 34.1854C63.1895 33.3064 64.3818 32.8125 65.625 32.8125H89.0625C90.3057 32.8125 91.498 33.3064 92.3771 34.1854C93.2561 35.0645 93.75 36.2568 93.75 37.5C93.75 38.7432 93.2561 39.9355 92.3771 40.8146C91.498 41.6936 90.3057 42.1875 89.0625 42.1875ZM105.469 75C104.078 75 102.719 74.5876 101.562 73.815C100.406 73.0424 99.5049 71.9443 98.9727 70.6595C98.4405 69.3747 98.3013 67.9609 98.5726 66.597C98.8439 65.2331 99.5136 63.9802 100.497 62.9969C101.48 62.0136 102.733 61.3439 104.097 61.0726C105.461 60.8013 106.875 60.9405 108.159 61.4727C109.444 62.0049 110.542 62.9061 111.315 64.0624C112.088 65.2187 112.5 66.5781 112.5 67.9688C112.5 69.8336 111.759 71.622 110.441 72.9406C109.122 74.2592 107.334 75 105.469 75Z" fill="url(#paint0_linear_31_1741)"/>
<defs>
<linearGradient id="paint0_linear_31_1741" x1="72.6562" y1="18.7969" x2="72.6562" y2="131.25" gradientUnits="userSpaceOnUse">
<stop stop-color="#69C7E5"/>
<stop offset="0.5" stop-color="#B1C0D8"/>
<stop offset="1" stop-color="#8875D8"/>
</linearGradient>
</defs>
</svg>
